<svg width="44" height="44" viewBox="0 0 44 44" fill="none" xmlns="http://www.w3.org/2000/svg">
<path d="M22 42C33.046 42 42 33.046 42 22C42 10.954 33.046 2 22 2C10.954 2 2 10.954 2 22C2 33.046 10.954 42 22 42Z" stroke="black" stroke-width="4" stroke-linecap="round" stroke-linejoin="round"/>
<path d="M22 21C23.3261 21 24.5979 20.4732 25.5355 19.5355C26.4732 18.5979 27 17.3261 27 16C27 14.6739 26.4732 13.4021 25.5355 12.4645C24.5979 11.5268 23.3261 11 22 11C20.6739 11 19.4021 11.5268 18.4645 12.4645C17.5268 13.4021 17 14.6739 17 16C17 17.3261 17.5268 18.5979 18.4645 19.5355C19.4021 20.4732 20.6739 21 22 21Z" stroke="black" stroke-width="4" stroke-linejoin="round"/>
<path d="M8.02197 36.332C8.36597 31.121 12.702 27 18 27H26C31.291 27 35.623 31.11 35.977 36.311" stroke="black" stroke-width="4" stroke-linecap="round" stroke-linejoin="round"/>
</svg>
