<svg width="18" height="24" viewBox="0 0 18 24" fill="none" xmlns="http://www.w3.org/2000/svg">
<path d="M13.074 16.86C12.354 17.476 10.917 17.895 9.26196 17.895C7.22996 17.895 5.52696 17.263 5.07496 16.412C4.91396 16.9 4.87696 17.458 4.87696 17.814C4.87696 17.814 4.77096 19.564 5.98796 20.782C5.98796 20.15 6.50096 19.637 7.13296 19.637C8.21596 19.637 8.21496 20.582 8.21396 21.349V21.418C8.21396 22.582 8.92496 23.579 9.93696 24C9.78117 23.6794 9.70046 23.3275 9.70096 22.971C9.70096 21.861 10.353 21.448 11.111 20.968C11.713 20.585 12.383 20.161 12.844 19.308C13.0925 18.8493 13.2225 18.3357 13.222 17.814C13.2221 17.4903 13.1722 17.1685 13.074 16.86ZM12.551 0.6C12.747 0.844 12.847 1.172 13.047 1.829L17.415 16.176C15.7743 15.3246 14.0134 14.7284 12.193 14.408L9.34996 4.8C9.32722 4.72337 9.28027 4.65616 9.21614 4.60844C9.15201 4.56072 9.07415 4.53505 8.99421 4.53528C8.91428 4.5355 8.83656 4.56161 8.7727 4.60969C8.70884 4.65777 8.66227 4.72524 8.63996 4.802L5.82996 14.405C4.00145 14.724 2.23261 15.3213 0.584961 16.176L4.97396 1.827C5.17396 1.171 5.27396 0.843 5.47096 0.6C5.64402 0.385433 5.86918 0.218799 6.12496 0.116C6.41496 0 6.75696 0 7.44296 0H10.578C11.264 0 11.608 0 11.898 0.117C12.1529 0.219851 12.3783 0.386105 12.551 0.6Z" fill="black"/>
</svg>
