<svg width="20" height="20" viewBox="0 0 20 20" fill="none" xmlns="http://www.w3.org/2000/svg">
<path d="M0.599824 8.58995L6.37982 2.79995L8.06982 4.49995C7.82982 5.34995 8.21982 6.27995 8.99982 6.72995V12.2699C8.39982 12.6099 7.99982 13.2599 7.99982 13.9999C7.99982 14.5304 8.21054 15.0391 8.58561 15.4142C8.96068 15.7892 9.46939 15.9999 9.99982 15.9999C10.5303 15.9999 11.039 15.7892 11.414 15.4142C11.7891 15.0391 11.9998 14.5304 11.9998 13.9999C11.9998 13.2599 11.5998 12.6099 10.9998 12.2699V7.40995L13.0698 9.49995C12.9998 9.64995 12.9998 9.81995 12.9998 9.99995C12.9998 10.5304 13.2105 11.0391 13.5856 11.4142C13.9607 11.7892 14.4694 11.9999 14.9998 11.9999C15.5303 11.9999 16.039 11.7892 16.414 11.4142C16.7891 11.0391 16.9998 10.5304 16.9998 9.99995C16.9998 9.46951 16.7891 8.96081 16.414 8.58573C16.039 8.21066 15.5303 7.99995 14.9998 7.99995C14.8198 7.99995 14.6498 7.99995 14.4998 8.06995L11.9298 5.49995C12.054 5.03678 12.0059 4.54429 11.7944 4.11394C11.5829 3.68358 11.2224 3.3446 10.7798 3.15995C10.3498 2.99995 9.89982 2.95995 9.49982 3.06995L7.79982 1.37995L8.58982 0.599946C9.36982 -0.190054 10.6298 -0.190054 11.4098 0.599946L19.3998 8.58995C20.1898 9.36995 20.1898 10.6299 19.3998 11.4099L11.4098 19.3999C10.6298 20.1899 9.36982 20.1899 8.58982 19.3999L0.599824 11.4099C-0.190176 10.6299 -0.190176 9.36995 0.599824 8.58995Z" fill="black"/>
</svg>
