<?xml version="1.0" standalone="no"?>
<!DOCTYPE svg PUBLIC "-//W3C//DTD SVG 20010904//EN"
 "http://www.w3.org/TR/2001/REC-SVG-20010904/DTD/svg10.dtd">
<svg version="1.0" xmlns="http://www.w3.org/2000/svg"
 width="225.000000pt" height="110.000000pt" viewBox="0 0 225.000000 110.000000"
 preserveAspectRatio="xMidYMid meet">

<g transform="translate(0.000000,110.000000) scale(0.100000,-0.100000)"
fill="#000000" stroke="none">
<path d="M899 1036 c-89 -24 -186 -99 -266 -206 -53 -71 -83 -133 -126 -257
-87 -248 -226 -444 -377 -531 l-55 -31 540 1 c297 0 548 5 557 10 18 9 68 87
68 105 0 6 -53 12 -132 15 -150 6 -215 25 -290 82 -91 70 -127 195 -94 327 42
164 143 390 208 465 33 38 33 38 -33 20z"/>
<path d="M1074 1042 c-6 -4 -25 -33 -43 -64 l-32 -57 23 -5 c13 -3 82 -7 153
-8 119 -3 135 -5 187 -31 114 -56 169 -140 174 -267 3 -64 -2 -90 -31 -177
-40 -121 -117 -286 -168 -362 -20 -30 -35 -57 -32 -59 9 -10 110 33 166 70
115 77 213 224 279 418 84 249 226 441 384 520 l59 30 -554 0 c-305 0 -559 -4
-565 -8z"/>
</g>
</svg>
