<svg width="24" height="24" viewBox="0 0 24 24" fill="none" xmlns="http://www.w3.org/2000/svg">
<path fill-rule="evenodd" clip-rule="evenodd" d="M4.74949 15.1618C5.21238 15.4631 5.34343 16.0825 5.04219 16.5454C4.55617 17.2923 4.22492 18.1208 4.08106 19H6C6.55228 19 7 19.4477 7 20C7 20.5523 6.55228 21 6 21H3C2.44772 21 2 20.5523 2 20C2 18.3375 2.50107 16.7835 3.36589 15.4545C3.66714 14.9917 4.28659 14.8606 4.74949 15.1618ZM19.2505 15.1618C19.7134 14.8606 20.3329 14.9917 20.6341 15.4545C21.4989 16.7835 22 18.3375 22 20C22 20.5523 21.5523 21 21 21H18C17.4477 21 17 20.5523 17 20C17 19.4477 17.4477 19 18 19H19.9189C19.7751 18.1208 19.4438 17.2923 18.9578 16.5454C18.6566 16.0825 18.7876 15.4631 19.2505 15.1618Z" fill="black"/>
<path fill-rule="evenodd" clip-rule="evenodd" d="M12 4C10.8954 4 10 4.89543 10 6C10 7.10457 10.8954 8 12 8C13.1046 8 14 7.10457 14 6C14 4.89543 13.1046 4 12 4ZM8 6C8 3.79086 9.79086 2 12 2C14.2091 2 16 3.79086 16 6C16 8.20914 14.2091 10 12 10C9.79086 10 8 8.20914 8 6Z" fill="black"/>
<path fill-rule="evenodd" clip-rule="evenodd" d="M5.25033 12.3382C5.44015 12.1232 5.71317 12 6.00001 12H18C18.2868 12 18.5599 12.1232 18.7497 12.3382C18.9395 12.5532 19.0279 12.8394 18.9923 13.124L17.9923 21.124C17.9297 21.6245 17.5043 22 17 22H7.00001C6.49568 22 6.07028 21.6245 6.00773 21.124L5.00773 13.124C4.97215 12.8394 5.0605 12.5532 5.25033 12.3382ZM7.13279 14L7.88279 20H16.1172L16.8672 14H7.13279Z" fill="black"/>
</svg>
