<svg width="41" height="37" viewBox="0 0 41 37" fill="none" xmlns="http://www.w3.org/2000/svg">
<path d="M39.7075 27.3273C37.3866 21.5388 35.4596 15.6036 33.2424 9.77688C32.2641 7.29661 31.3054 4.79546 29.9704 2.47465C29.4399 1.64167 28.9332 0.725805 28.0635 0.192105C27.8504 0.0608885 27.6029 -0.00576188 27.3518 0.000390574C26.945 0.00924867 26.5395 0.188309 26.2294 0.448041C25.0619 1.36106 24.37 2.6885 23.5942 3.91187C22.2242 6.18081 20.779 8.55826 18.4881 10.0325C17.4119 10.7826 16.0019 10.8645 14.9647 11.6687C13.5457 12.7254 12.5809 14.2243 11.4175 15.5232C11.152 15.8358 10.7417 15.9608 10.3839 16.13C6.9117 17.529 3.43952 18.9229 0 20.392C2.91164 22.6167 6.01451 24.5965 8.98477 26.7442C9.79964 26.5848 10.6177 26.2548 11.4576 26.4019C12.7901 26.8132 13.5707 28.0739 14.1812 29.227C15.4224 31.7389 16.3196 34.391 17.3244 37C19.0048 36.8814 20.5176 36.0259 21.8174 35.0202C24.3188 33.0196 26.2243 30.433 28.3214 28.0454C29.3272 27.0014 30.3522 25.7581 31.8608 25.4674C33.3862 25.103 35.0204 25.643 36.1514 26.681C37.7392 28.0824 39.1444 29.7025 41 30.7753C40.7511 29.5617 40.1528 28.4728 39.7075 27.3273ZM13.7606 23.2494C12.2968 24.1045 10.7414 24.8091 9.21988 25.5554C6.8313 23.9748 4.50391 22.3 2.15698 20.6628C5.32103 19.2936 8.53441 18.0219 11.7398 16.7441C13.26 17.9156 14.8266 19.0292 16.3468 20.2006C15.6325 21.3278 14.7728 22.3743 13.7606 23.2494ZM17.0176 19.3221C15.5076 18.2022 13.9784 17.1111 12.4922 15.962C13.4458 14.6792 14.4903 13.4384 15.7402 12.4277C16.5688 11.9034 17.5797 11.7579 18.4391 11.2856C20.4789 10.2796 21.87 8.43488 23.199 6.67243C21.4959 11.0398 19.6781 15.4242 17.0179 19.3221H17.0176Z" fill="black"/>
</svg>
