<svg width="24" height="24" viewBox="0 0 24 24" fill="none" xmlns="http://www.w3.org/2000/svg">
<path d="M12 1.84998C11.73 1.84998 11.45 1.91998 11.22 2.04998L3.78 6.34998C3.3 6.62998 3 7.14998 3 7.70998V16.29C3 16.85 3.3 17.37 3.78 17.65L5.73 18.77C6.68 19.23 7 19.24 7.44 19.24C8.84 19.24 9.65 18.39 9.65 16.91V8.43998C9.65 8.31998 9.55 8.21998 9.43 8.21998H8.5C8.37 8.21998 8.27 8.31998 8.27 8.43998V16.91C8.27 17.57 7.59 18.22 6.5 17.67L4.45 16.5C4.41633 16.4762 4.3888 16.4448 4.36967 16.4082C4.35055 16.3717 4.34038 16.3312 4.34 16.29V7.70998C4.34 7.61998 4.38 7.53998 4.45 7.49998L11.89 3.20998C11.95 3.16998 12.05 3.16998 12.11 3.20998L19.55 7.49998C19.62 7.53998 19.66 7.61998 19.66 7.70998V16.29C19.66 16.37 19.62 16.45 19.55 16.5L12.11 20.79C12.05 20.83 11.95 20.83 11.88 20.79L10 19.65C9.92 19.62 9.84 19.61 9.79 19.64C9.26 19.94 9.16 20 8.67 20.15C8.55 20.19 8.36 20.26 8.74 20.47L11.22 21.94C11.46 22.08 11.72 22.15 12 22.15C12.28 22.15 12.54 22.08 12.78 21.94L20.22 17.65C20.7 17.37 21 16.85 21 16.29V7.70998C21 7.14998 20.7 6.62998 20.22 6.34998L12.78 2.04998C12.55 1.91998 12.28 1.84998 12 1.84998ZM14 7.99998C11.88 7.99998 10.61 8.88998 10.61 10.39C10.61 12 11.87 12.47 13.91 12.67C16.34 12.91 16.53 13.27 16.53 13.75C16.53 14.58 15.86 14.93 14.3 14.93C12.32 14.93 11.9 14.44 11.75 13.46C11.7395 13.4093 11.7119 13.3638 11.6718 13.3311C11.6318 13.2983 11.5817 13.2803 11.53 13.28H10.57C10.45 13.28 10.36 13.37 10.36 13.5C10.36 14.74 11.04 16.24 14.3 16.24C16.65 16.24 18 15.31 18 13.69C18 12.08 16.92 11.66 14.63 11.35C12.32 11.05 12.09 10.89 12.09 10.35C12.09 9.89998 12.29 9.29998 14 9.29998C15.5 9.29998 16.09 9.62998 16.32 10.66C16.34 10.76 16.43 10.83 16.53 10.83H17.5C17.55 10.83 17.61 10.81 17.65 10.76C17.69 10.72 17.72 10.66 17.7 10.6C17.56 8.81998 16.38 7.99998 14 7.99998Z" fill="black"/>
</svg>
