<svg width="24" height="24" viewBox="0 0 24 24" fill="none" xmlns="http://www.w3.org/2000/svg">
<path d="M10.3149 4.876L6.30495 2.852L1.90395 5.048L6.02195 7.116L10.3149 4.876ZM12.1529 5.804L16.3579 7.926L11.9949 10.116L7.86995 8.046L12.1529 5.804ZM17.7679 2.882L22.0879 5.048L18.2249 6.988L14.0119 4.863L17.7679 2.882ZM15.9099 1.95L12.0209 0L8.17395 1.92L12.1809 3.94L15.9099 1.95ZM12.8699 18.694V24L17.5809 21.65L17.5759 16.34L12.8699 18.694ZM17.5739 14.488L17.5689 9.235L12.8699 11.571V16.825L17.5739 14.488ZM23.2289 13.504V18.831L19.2109 20.836L19.2089 15.533L23.2289 13.504ZM23.2289 11.641V6.421L19.2039 8.422L19.2069 13.686L23.2289 11.641ZM11.2069 11.571L8.03295 9.976V16.871C8.03295 16.871 4.15295 8.614 3.79295 7.873C3.74695 7.777 3.55595 7.672 3.50795 7.646C2.59829 7.17675 1.68661 6.71142 0.772949 6.25V18.43L3.59295 19.938V13.57C3.59295 13.57 7.43295 20.948 7.47095 21.028C7.51095 21.108 7.89595 21.886 8.30795 22.16C8.85595 22.523 11.2069 23.936 11.2069 23.936V11.571Z" fill="black"/>
</svg>
