<svg width="24" height="24" viewBox="0 0 24 24" fill="none" xmlns="http://www.w3.org/2000/svg">
<path d="M11.9001 0.853051C10.6435 0.853449 9.42194 1.26689 8.42341 2.02973C7.42487 2.79256 6.70478 3.86247 6.37401 5.07473C6.04324 6.28699 6.12013 7.57436 6.59285 8.73863C7.06556 9.9029 7.90788 10.8795 8.99011 11.5181L10.6311 8.73305C10.6501 8.69903 10.6556 8.65906 10.6463 8.6212C10.637 8.58334 10.6137 8.55041 10.5811 8.52905C10.1647 8.24709 9.84964 7.83896 9.68238 7.36466C9.51512 6.89035 9.50444 6.3749 9.6519 5.89407C9.79936 5.41325 10.0972 4.99241 10.5016 4.69343C10.906 4.39446 11.3957 4.23311 11.8986 4.23311C12.4015 4.23311 12.8912 4.39446 13.2956 4.69343C13.7 4.99241 13.9979 5.41325 14.1453 5.89407C14.2928 6.3749 14.2821 6.89035 14.1148 7.36466C13.9476 7.83896 13.6326 8.24709 13.2161 8.52905C13.1837 8.55057 13.1606 8.58357 13.1515 8.62142C13.1424 8.65926 13.148 8.69915 13.1671 8.73305L14.8091 11.5181C15.8918 10.8797 16.7346 9.90308 17.2077 8.73861C17.6807 7.57413 17.7578 6.28643 17.4269 5.07386C17.0961 3.86129 16.3758 2.79114 15.3769 2.02825C14.378 1.26537 13.156 0.852077 11.8991 0.852051L11.9001 0.853051ZM5.73011 11.6891C4.96876 11.6748 4.21221 11.8125 3.50468 12.094C2.79715 12.3755 2.15283 12.7953 1.60937 13.3287C1.06591 13.8621 0.634226 14.4984 0.339536 15.2006C0.0448466 15.9027 -0.106934 16.6566 -0.106934 17.4181C-0.106934 18.1795 0.0448466 18.9334 0.339536 19.6355C0.634226 20.3377 1.06591 20.974 1.60937 21.5074C2.15283 22.0408 2.79715 22.4606 3.50468 22.7421C4.21221 23.0236 4.96876 23.1613 5.73011 23.1471C8.90911 23.1471 11.5371 20.4481 11.4571 17.2711H8.23011C8.18918 17.2718 8.15022 17.2888 8.12174 17.3182C8.09326 17.3476 8.07758 17.3871 8.07811 17.4281C8.07011 18.6941 7.01411 19.7681 5.72811 19.7681C5.37824 19.7678 5.03283 19.6894 4.71711 19.5386C4.4014 19.3878 4.12334 19.1684 3.90322 18.8965C3.68311 18.6245 3.5265 18.3068 3.44483 17.9666C3.36316 17.6264 3.35849 17.2722 3.43115 16.93C3.50382 16.5877 3.65199 16.266 3.86485 15.9884C4.07771 15.7107 4.34988 15.484 4.66151 15.325C4.97314 15.1659 5.31635 15.0784 5.6661 15.0689C6.01585 15.0594 6.36331 15.1281 6.68311 15.2701C6.71745 15.2858 6.7564 15.2885 6.79255 15.2774C6.82869 15.2663 6.8595 15.2424 6.87911 15.2101L8.52511 12.4171C7.67072 11.9383 6.70748 11.6876 5.72811 11.6891H5.73011ZM21.1721 12.4501L19.5351 15.2381C19.5158 15.2722 19.5102 15.3124 19.5195 15.3505C19.5288 15.3886 19.5522 15.4217 19.5851 15.4431C20.0028 15.724 20.3193 16.1317 20.4879 16.606C20.6565 17.0804 20.6683 17.5963 20.5216 18.0779C20.3749 18.5595 20.0774 18.9812 19.673 19.281C19.2686 19.5808 18.7785 19.7427 18.2751 19.7431C17.7718 19.7444 17.2814 19.584 16.876 19.2857C16.4707 18.9874 16.1718 18.5668 16.0234 18.0858C15.875 17.6049 15.885 17.089 16.0518 16.6141C16.2187 16.1393 16.5335 15.7305 16.9501 15.4481C16.9828 15.4265 17.0061 15.3933 17.0152 15.3552C17.0243 15.3172 17.0185 15.277 16.9991 15.2431L15.3531 12.4611C14.2715 13.1012 13.4303 14.0793 12.9592 15.2446C12.4882 16.4099 12.4133 17.6978 12.7462 18.9098C13.0792 20.1218 13.8013 21.1907 14.8016 21.9519C15.8018 22.7131 17.0245 23.1243 18.2814 23.1221C19.5383 23.1199 20.7597 22.7046 21.7573 21.94C22.7549 21.1754 23.4734 20.104 23.8021 18.8908C24.1309 17.6776 24.0516 16.39 23.5765 15.2264C23.1015 14.0627 22.257 13.0875 21.1731 12.4511L21.1721 12.4501Z" fill="black"/>
</svg>
