<svg width="24" height="24" viewBox="0 0 24 24" fill="none" xmlns="http://www.w3.org/2000/svg">
<path d="M15.6009 5.53005C13.6909 5.56505 11.6199 6.44005 9.97088 8.09005C7.04088 11.02 7.88788 16.62 8.88288 17.615C9.68788 18.419 15.4779 19.458 18.4089 16.527C18.613 16.3215 18.8079 16.107 18.9929 15.884C19.0359 15.592 19.1979 15.224 19.4819 14.778C19.313 14.8639 19.1318 14.9233 18.9449 14.954C18.8009 15.219 18.5749 15.504 18.2689 15.809C17.9149 16.144 17.6619 16.363 17.5089 16.465C17.3815 16.5579 17.2294 16.6108 17.0719 16.617C16.7219 16.617 16.5579 16.309 16.5779 15.693C16.3579 16.009 16.1529 16.242 15.9659 16.393C15.8052 16.5328 15.6008 16.612 15.3879 16.617C15.1939 16.617 15.0279 16.527 14.8919 16.344C14.7834 16.1953 14.7168 16.0203 14.6989 15.837C14.4803 16.0589 14.2367 16.2545 13.9729 16.42C13.7489 16.552 13.5029 16.617 13.2329 16.617C12.9329 16.617 12.6899 16.521 12.5059 16.329C12.3689 16.1846 12.2792 16.0018 12.2489 15.805V15.809C11.9489 16.085 11.6849 16.289 11.4589 16.42C11.2639 16.5422 11.0399 16.6102 10.8099 16.617C10.6997 16.6199 10.5904 16.5965 10.4911 16.5486C10.3918 16.5008 10.3053 16.43 10.2389 16.342C10.0939 16.159 10.0209 15.912 10.0209 15.603C10.0209 15.139 10.1219 14.583 10.3229 13.933C10.5239 13.283 10.7679 12.683 11.0559 12.136L11.8979 11.824C11.9171 11.8168 11.9374 11.8124 11.9579 11.811C12.0209 11.811 12.0739 11.858 12.1149 11.951C12.1549 12.046 12.1759 12.172 12.1759 12.331C12.1759 12.782 12.0719 13.219 11.8639 13.641C11.6569 14.063 11.3319 14.514 10.8899 14.993C10.8719 15.223 10.8629 15.381 10.8629 15.467C10.8629 15.66 10.8989 15.812 10.9689 15.925C11.0399 16.038 11.1339 16.094 11.2509 16.094C11.3881 16.0886 11.5208 16.0434 11.6329 15.964C11.7649 15.88 11.9659 15.704 12.2349 15.441C12.2629 15.023 12.4219 14.643 12.7169 14.299C13.0409 13.919 13.4019 13.73 13.7969 13.73C14.0029 13.73 14.1669 13.784 14.2909 13.89C14.3513 13.941 14.3995 14.005 14.4317 14.0772C14.4639 14.1494 14.4794 14.228 14.4769 14.307C14.4769 14.765 13.9909 15.136 13.0179 15.421C13.1059 15.851 13.3379 16.067 13.7109 16.067C13.8579 16.0668 14.0021 16.0263 14.1279 15.95C14.2569 15.874 14.4489 15.707 14.7029 15.453C14.7349 15.201 14.8209 14.958 14.9619 14.725C15.1439 14.425 15.3779 14.181 15.6629 13.995C15.9479 13.81 16.1999 13.717 16.4189 13.717C16.6949 13.717 16.8889 13.844 16.9989 14.098L17.6759 13.724H17.8619L17.5699 14.695C17.4199 15.183 17.3439 15.518 17.3439 15.699C17.3439 15.889 17.4109 15.984 17.5459 15.984C17.6319 15.984 17.7269 15.939 17.8309 15.847C17.9349 15.755 18.0809 15.615 18.2679 15.427V15.428C18.4109 15.273 18.5419 15.108 18.6599 14.934C18.4699 14.85 18.3749 14.724 18.3749 14.559C18.3749 14.389 18.4329 14.207 18.5489 14.014C18.6649 13.82 18.8239 13.724 19.0279 13.724C19.1999 13.724 19.2859 13.812 19.2859 13.989C19.2859 14.128 19.2359 14.327 19.1369 14.585C19.5039 14.545 19.8239 14.265 20.0979 13.743L20.3259 13.733C21.3849 11.295 21.1539 8.65805 19.4959 7.00105C18.4769 5.98105 17.0879 5.50105 15.6009 5.53005ZM20.3259 13.733C19.9858 14.5096 19.537 15.2339 18.9929 15.884C18.9856 15.9327 18.9816 15.9818 18.9809 16.031C18.9809 16.199 19.0279 16.34 19.1209 16.454C19.2129 16.567 19.3269 16.624 19.4609 16.624C19.7569 16.624 20.1749 16.36 20.7149 15.837C20.7139 15.877 20.7119 15.917 20.7119 15.958C20.7119 16.104 20.7239 16.326 20.7479 16.624L21.4809 16.452C21.4809 16.252 21.4839 16.095 21.4909 15.978C21.5009 15.821 21.5239 15.648 21.5569 15.461C21.5769 15.351 21.6269 15.245 21.7089 15.146L21.8949 14.93C22.0139 14.7913 22.1401 14.6587 22.2729 14.533C22.3349 14.478 22.3889 14.434 22.4349 14.403C22.4713 14.3774 22.5136 14.3616 22.5579 14.357C22.6129 14.357 22.6409 14.392 22.6409 14.463C22.6409 14.533 22.5889 14.699 22.4849 14.96C22.2909 15.446 22.1929 15.808 22.1929 16.044C22.1929 16.219 22.2389 16.358 22.3289 16.462C22.3731 16.5131 22.4282 16.5535 22.4902 16.5804C22.5522 16.6072 22.6194 16.6197 22.6869 16.617C23.0519 16.617 23.4899 16.348 23.9999 15.809V15.428C23.6389 15.854 23.3769 16.068 23.2159 16.068C23.1069 16.068 23.0529 16.001 23.0529 15.868C23.0529 15.768 23.1179 15.552 23.2479 15.218C23.4379 14.732 23.5329 14.382 23.5329 14.17C23.537 14.0534 23.497 13.9395 23.4209 13.851C23.3863 13.8103 23.343 13.7777 23.2942 13.7557C23.2454 13.7338 23.1924 13.7229 23.1389 13.724C22.9739 13.724 22.7849 13.801 22.5719 13.957C22.3589 14.113 22.0719 14.393 21.7089 14.797C21.7619 14.535 21.8739 14.175 22.0439 13.717L21.2349 13.873C21.0707 14.2187 20.9372 14.5781 20.8359 14.947C20.7959 15.103 20.7659 15.263 20.7439 15.427C20.5873 15.5843 20.4238 15.7344 20.2539 15.877C20.1883 15.928 20.1079 15.9561 20.0249 15.957C19.9914 15.9584 19.9581 15.9516 19.9278 15.9374C19.8975 15.9231 19.8711 15.9017 19.8509 15.875C19.8052 15.8104 19.7826 15.7321 19.7869 15.653C19.7869 15.553 19.8059 15.439 19.8429 15.31C19.8809 15.18 19.9629 14.937 20.0919 14.579L20.3999 13.73L20.3259 13.733ZM3.11588 10.806C2.25288 10.79 1.44588 11.069 0.854883 11.66C-0.497117 13.012 -0.215117 15.487 1.48588 17.187C3.18588 18.888 6.43588 18.397 7.01288 17.819C7.47988 17.353 8.08288 13.992 6.38188 12.292C5.42488 11.335 4.22488 10.827 3.11588 10.806ZM15.4009 11.164H15.5669V11.374H15.3999L15.4009 11.164ZM15.8279 11.164H15.9939V12.029L16.4539 11.574H16.6489L16.2849 11.936L16.7129 12.62H16.5149L16.1579 12.045L15.9939 12.211V12.621H15.8279V11.164ZM16.8439 11.164H17.0099V11.374H16.8439V11.164ZM17.3249 11.286H17.4909V11.574H17.6629V11.709H17.4909V12.426C17.4909 12.463 17.4969 12.488 17.5109 12.501C17.5229 12.514 17.5479 12.521 17.5849 12.521C17.6113 12.5222 17.6376 12.5188 17.6629 12.511V12.652C17.618 12.6606 17.5725 12.6653 17.5269 12.666C17.4734 12.6696 17.4203 12.6544 17.3769 12.623C17.3593 12.608 17.3455 12.589 17.3364 12.5677C17.3274 12.5463 17.3235 12.5232 17.3249 12.5V11.71H17.1839V11.574H17.3249V11.286ZM13.7629 11.544C13.8439 11.544 13.9129 11.556 13.9699 11.582C14.0269 11.606 14.0699 11.643 14.0999 11.692C14.1299 11.741 14.1449 11.798 14.1449 11.865H13.9689C13.9629 11.754 13.8939 11.698 13.7609 11.698C13.7033 11.6948 13.6461 11.7091 13.5969 11.739C13.5777 11.7517 13.5621 11.7692 13.5515 11.7897C13.541 11.8102 13.536 11.833 13.5369 11.856C13.5369 11.891 13.5519 11.921 13.5819 11.944C13.6119 11.968 13.6619 11.988 13.7319 12.004L13.8919 12.043C13.9746 12.0574 14.0519 12.0937 14.1159 12.148C14.1629 12.194 14.1859 12.256 14.1859 12.334C14.1872 12.3964 14.169 12.4575 14.1339 12.509C14.0959 12.562 14.043 12.6024 13.9819 12.625C13.91 12.6535 13.8332 12.6674 13.7559 12.666C13.6199 12.666 13.5159 12.636 13.4469 12.578C13.3779 12.519 13.3419 12.429 13.3379 12.309H13.5139C13.5179 12.346 13.5239 12.374 13.5309 12.393C13.5386 12.4131 13.5502 12.4314 13.5649 12.447C13.6089 12.49 13.6769 12.512 13.7689 12.512C13.8311 12.5152 13.8927 12.4995 13.9459 12.467C13.9663 12.4547 13.9833 12.4372 13.995 12.4163C14.0067 12.3955 14.0129 12.372 14.0129 12.348C14.0135 12.3312 14.0104 12.3144 14.0038 12.2989C13.9973 12.2833 13.9874 12.2694 13.9749 12.258C13.9385 12.2301 13.896 12.2112 13.8509 12.203L13.6949 12.165C13.6408 12.1519 13.5877 12.1352 13.5359 12.115C13.5001 12.1001 13.467 12.0795 13.4379 12.054C13.4124 12.0313 13.3925 12.0028 13.3799 11.971C13.3684 11.9362 13.363 11.8997 13.3639 11.863C13.3639 11.767 13.3999 11.689 13.4729 11.631C13.5566 11.5694 13.6591 11.5387 13.7629 11.544ZM14.7979 11.544C14.8676 11.5429 14.9367 11.5576 14.9999 11.587C15.044 11.6075 15.0835 11.6369 15.1157 11.6734C15.1479 11.7099 15.1721 11.7527 15.1869 11.799C15.1992 11.8401 15.2069 11.8823 15.2099 11.925H15.0419C15.0378 11.8613 15.0099 11.8013 14.9639 11.757C14.9171 11.7159 14.8562 11.6944 14.7939 11.697C14.7381 11.6958 14.6834 11.7134 14.6389 11.747C14.5922 11.7843 14.5575 11.8343 14.5389 11.891C14.5148 11.9632 14.5033 12.039 14.5049 12.115C14.503 12.1879 14.5149 12.2605 14.5399 12.329C14.5599 12.3828 14.595 12.4297 14.6409 12.464C14.6867 12.4965 14.7417 12.5134 14.7979 12.512C14.9399 12.512 15.0249 12.428 15.0539 12.26H15.2209C15.2159 12.3373 15.1937 12.4125 15.1559 12.48C15.1217 12.5393 15.071 12.5873 15.0099 12.618C14.9428 12.6512 14.8687 12.6677 14.7939 12.666C14.7072 12.6683 14.6218 12.6454 14.5479 12.6C14.4768 12.553 14.4209 12.4863 14.3869 12.408C14.3471 12.3156 14.3277 12.2157 14.3299 12.115C14.3299 12.03 14.3399 11.952 14.3619 11.882C14.3812 11.8157 14.4135 11.7538 14.4569 11.7C14.4968 11.6496 14.5483 11.6095 14.6069 11.583C14.6669 11.556 14.7321 11.5433 14.7979 11.544ZM15.4009 11.574H15.5669V12.62H15.3999L15.4009 11.574ZM16.8439 11.574H17.0099V12.62H16.8439V11.574ZM11.7939 12.192C11.7139 12.192 11.5939 12.396 11.4379 12.803C11.2829 13.21 11.1299 13.78 10.9789 14.513C11.2599 14.201 11.4879 13.851 11.6619 13.463C11.8369 13.076 11.9239 12.743 11.9239 12.464C11.9267 12.3965 11.9144 12.3292 11.8879 12.267C11.8629 12.217 11.8319 12.192 11.7949 12.192H11.7939ZM16.4559 13.989C16.2349 13.989 16.0249 14.177 15.8269 14.552C15.6299 14.928 15.5309 15.274 15.5309 15.59C15.5309 15.71 15.5599 15.806 15.6189 15.88C15.6446 15.9149 15.6782 15.9432 15.717 15.9625C15.7558 15.9818 15.7986 15.9916 15.8419 15.991C16.0629 15.991 16.2719 15.803 16.4669 15.426C16.6629 15.049 16.7609 14.701 16.7609 14.383C16.7668 14.2798 16.7376 14.1775 16.6779 14.093C16.6518 14.0594 16.618 14.0324 16.5794 14.0143C16.5408 13.9962 16.4985 13.9876 16.4559 13.989ZM13.6079 13.996C13.4619 13.996 13.3229 14.106 13.1909 14.329C13.0579 14.551 12.9909 14.839 12.9909 15.195C13.5569 15.036 13.8399 14.743 13.8399 14.314C13.8399 14.102 13.7629 13.996 13.6079 13.996Z" fill="black"/>
</svg>
