<svg width="24" height="24" viewBox="0 0 24 24" fill="none" xmlns="http://www.w3.org/2000/svg">
<g clip-path="url(#clip0_117_2)">
<mask id="mask0_117_2" style="mask-type:luminance" maskUnits="userSpaceOnUse" x="0" y="0" width="24" height="24">
<path d="M0 0H24V24H0V0Z" fill="white"/>
</mask>
<g mask="url(#mask0_117_2)">
<path d="M23.429 8.77268e-07H0.570001C0.418736 0.000265791 0.273756 0.0605415 0.166889 0.167596C0.0600221 0.274651 6.46842e-07 0.419735 8.78816e-07 0.571001V23.43C-0.000130854 23.505 0.0145486 23.5793 0.0431974 23.6487C0.0718461 23.718 0.113901 23.781 0.166949 23.8341C0.219998 23.8871 0.282996 23.9292 0.352333 23.9578C0.421669 23.9865 0.495979 24.0011 0.571001 24.001H23.43C23.505 24.001 23.5792 23.9862 23.6485 23.9575C23.7178 23.9288 23.7807 23.8868 23.8338 23.8338C23.8868 23.7807 23.9288 23.7178 23.9575 23.6485C23.9862 23.5792 24.001 23.505 24.001 23.43V0.570001C24.0009 0.495016 23.986 0.420791 23.9572 0.351565C23.9283 0.282338 23.8862 0.219465 23.8331 0.166536C23.7799 0.113606 23.7169 0.0716568 23.6476 0.0430827C23.5783 0.0145087 23.504 -0.00013056 23.429 8.77268e-07ZM14.286 12.826H11.429V21.714H9.143V12.826H6.286V10.857H14.286V12.826ZM14.926 21.206V18.831C14.926 18.831 16.224 19.809 17.781 19.809C19.338 19.809 19.278 18.791 19.278 18.651C19.278 17.174 14.866 17.174 14.866 13.9C14.866 9.448 21.295 11.205 21.295 11.205L21.215 13.321C21.215 13.321 20.137 12.602 18.919 12.602C17.701 12.602 17.262 13.182 17.262 13.8C17.262 15.397 21.714 15.238 21.714 18.452C21.714 23.402 14.926 21.207 14.926 21.207V21.206Z" fill="black"/>
</g>
</g>
<defs>
<clipPath id="clip0_117_2">
<rect width="24" height="24" fill="white"/>
</clipPath>
</defs>
</svg>
