<svg width="44" height="44" viewBox="0 0 44 44" fill="none" xmlns="http://www.w3.org/2000/svg">
<g clip-path="url(#clip0_117_27)">
<path d="M32.4878 36.4573H11.5122C9.26888 36.4573 7.43342 34.6219 7.43342 32.3786V11.403C7.43342 9.15956 9.26888 7.3242 11.5122 7.3242H32.4878C34.7311 7.3242 36.5666 9.15956 36.5666 11.4029V32.3785C36.5666 34.6219 34.7311 36.4573 32.4878 36.4573ZM29.0635 14.71H15.2883V28.4853H29.0635V14.7099L29.0635 14.71ZM15.6708 0H13.1055V6.16756H15.6707L15.6708 0ZM20.8166 0H18.2513V6.16756H20.8166L20.8166 0ZM25.9626 0H23.3973V6.16756H25.9625L25.9626 0ZM31.1084 0H28.5431V6.16756H31.1083V0H31.1084ZM6.27679 28.3322H0V30.8975H6.27688V28.3323L6.27679 28.3322ZM6.27679 23.1865H0V25.7517H6.27688L6.27679 23.1865ZM6.27679 18.0405H0V20.6058H6.27688L6.27679 18.0405ZM6.27679 12.8946H0V15.4599H6.27688V12.8947L6.27679 12.8946ZM44 28.3322H37.7231V30.8975H44V28.3323V28.3322ZM44 23.1865H37.7231V25.7517H44V23.1865ZM44 18.0405H37.7231V20.6058H44V18.0405ZM44 12.8946H37.7231V15.4599H44V12.8946ZM15.6707 37.8324H13.1055V44H15.6707V37.8324ZM20.8166 37.8324H18.2513V44H20.8166L20.8166 37.8324ZM25.9625 37.8324H23.3972V44H25.9624V37.8324H25.9625ZM31.1084 37.8324H28.5431V44H31.1083V37.8324H31.1084ZM13.0238 11.0775C13.0238 10.0229 11.8743 9.36023 10.9598 9.88754C10.0451 10.4148 10.0451 11.7401 10.9598 12.2674C11.8744 12.7947 13.0238 12.1321 13.0238 11.0775Z" fill="black"/>
</g>
<defs>
<clipPath id="clip0_117_27">
<rect width="44" height="44" fill="white"/>
</clipPath>
</defs>
</svg>
